<?xml version="1.0" standalone="no"?>
<!DOCTYPE svg PUBLIC "-//W3C//DTD SVG 20010904//EN"
 "http://www.w3.org/TR/2001/REC-SVG-20010904/DTD/svg10.dtd">
<svg version="1.0" xmlns="http://www.w3.org/2000/svg"
 width="1060.000000pt" height="596.000000pt" viewBox="0 0 1060.000000 596.000000"
 preserveAspectRatio="xMidYMid meet">

<g transform="translate(0.000000,596.000000) scale(0.100000,-0.100000)"
fill="#000000" stroke="none">
<path d="M6215 3534 c-959 -53 -1464 -163 -2843 -618 -577 -191 -936 -285
-1262 -332 -626 -89 -1107 -27 -1722 221 -32 13 -58 22 -58 19 0 -10 209 -107
343 -158 386 -149 818 -210 1243 -176 453 36 769 108 1539 350 1182 371 1700
490 2450 561 147 14 817 18 995 6 617 -42 1225 -176 1775 -392 340 -134 561
-246 965 -493 l25 -15 -25 28 c-31 34 -326 230 -475 315 -244 140 -586 293
-870 388 -434 145 -822 222 -1400 277 -152 15 -552 26 -680 19z"/>
</g>
</svg>
